<svg height="894" width="720" xmlns="http://www.w3.org/2000/svg">
<rect height="894" fill="#555" width="720"></rect>
<text fill="#7f7" font-family="Courier New" font-size="12" xml:space="preserve">
<tspan x="10" y="26">3 megabytes installed</tspan>
<tspan x="10" y="42"></tspan>
<tspan x="10" y="58">node_modules</tspan>
<tspan x="10" y="74">└─┬ timestream@0.1.1 </tspan>
<tspan x="10" y="90">  ├─┬ stream-joins@0.1.5 </tspan>
<tspan x="10" y="106">  │ ├─┬ sosj@0.3.0 </tspan>
<tspan x="10" y="122">  │ │ └── readable-stream@1.1.14 </tspan>
<tspan x="10" y="138">  │ ├─┬ through2@0.6.5 </tspan>
<tspan x="10" y="154">  │ │ └── readable-stream@1.0.34 </tspan>
<tspan x="10" y="170">  │ └── xtend@4.0.1 </tspan>
<tspan x="10" y="186">  ├─┬ terminus@1.0.12 </tspan>
<tspan x="10" y="202">  │ └─┬ readable-stream@1.0.34 </tspan>
<tspan x="10" y="218">  │   ├── core-util-is@1.0.2 </tspan>
<tspan x="10" y="234">  │   ├── inherits@2.0.3 </tspan>
<tspan x="10" y="250">  │   ├── isarray@0.0.1 </tspan>
<tspan x="10" y="266">  │   └── string_decoder@0.10.31 </tspan>
<tspan x="10" y="282">  ├─┬ timestream-aggregates@0.1.7 </tspan>
<tspan x="10" y="298">  │ ├── array-pivot@1.0.1 </tspan>
<tspan x="10" y="314">  │ ├── floordate@2.0.0 </tspan>
<tspan x="10" y="330">  │ ├── isnumber@1.0.0 </tspan>
<tspan x="10" y="346">  │ ├── stats-lite@1.0.3 </tspan>
<tspan x="10" y="362">  │ ├─┬ stream-splice@1.0.9 </tspan>
<tspan x="10" y="378">  │ │ └── readable-stream@1.0.34 </tspan>
<tspan x="10" y="394">  │ └─┬ through2-map@1.4.0 </tspan>
<tspan x="10" y="410">  │   ├─┬ through2@0.5.1 </tspan>
<tspan x="10" y="426">  │   │ └── readable-stream@1.0.34 </tspan>
<tspan x="10" y="442">  │   └── xtend@3.0.0 </tspan>
<tspan x="10" y="458">  ├─┬ timestream-filters@0.2.4 </tspan>
<tspan x="10" y="474">  │ ├─┬ through2@2.0.3 </tspan>
<tspan x="10" y="490">  │ │ └─┬ readable-stream@2.2.9 </tspan>
<tspan x="10" y="506">  │ │   ├── buffer-shims@1.0.0 </tspan>
<tspan x="10" y="522">  │ │   ├── isarray@1.0.0 </tspan>
<tspan x="10" y="538">  │ │   ├── process-nextick-args@1.0.7 </tspan>
<tspan x="10" y="554">  │ │   ├── string_decoder@1.0.0 </tspan>
<tspan x="10" y="570">  │ │   └── util-deprecate@1.0.2 </tspan>
<tspan x="10" y="586">  │ └─┬ through2-filter@2.0.0 </tspan>
<tspan x="10" y="602">  │   └─┬ through2@2.0.3 </tspan>
<tspan x="10" y="618">  │     └─┬ readable-stream@2.2.9 </tspan>
<tspan x="10" y="634">  │       ├── isarray@1.0.0 </tspan>
<tspan x="10" y="650">  │       └── string_decoder@1.0.0 </tspan>
<tspan x="10" y="666">  ├─┬ timestream-gen@0.1.1 </tspan>
<tspan x="10" y="682">  │ └─┬ stream-spigot@3.0.6 </tspan>
<tspan x="10" y="698">  │   └─┬ readable-stream@2.2.9 </tspan>
<tspan x="10" y="714">  │     ├── isarray@1.0.0 </tspan>
<tspan x="10" y="730">  │     └── string_decoder@1.0.0 </tspan>
<tspan x="10" y="746">  └─┬ timestream-ops@0.2.0 </tspan>
<tspan x="10" y="762">    ├── flatnest@0.2.2 </tspan>
<tspan x="10" y="778">    ├─┬ through2@0.4.2 </tspan>
<tspan x="10" y="794">    │ └── readable-stream@1.0.34 </tspan>
<tspan x="10" y="810">    ├─┬ through2-map@1.2.1 </tspan>
<tspan x="10" y="826">    │ └─┬ through2@0.2.3 </tspan>
<tspan x="10" y="842">    │   └── xtend@2.1.2 </tspan>
<tspan x="10" y="858">    └─┬ xtend@2.1.2 </tspan>
<tspan x="10" y="874">      └── object-keys@0.4.0</tspan>
</text>
</svg>
